<svg xmlns="http://www.w3.org/2000/svg" viewBox="0 0 585 501" width="585" height="501">
  <path d="M0 0 C1.6628 -0.0033 3.3256 -0.007 4.9884 -0.0111 C9.5434 -0.0211 14.0984 -0.0249 18.6534 -0.0275 C23.5718 -0.0314 28.4902 -0.041 33.4086 -0.0497 C45.2774 -0.0695 57.1463 -0.0796 69.0152 -0.0885 C74.6103 -0.0929 80.2053 -0.0982 85.8004 -0.1035 C104.408 -0.1205 123.0157 -0.135 141.6233 -0.1422 C146.4474 -0.1441 151.2714 -0.146 156.0954 -0.148 C157.2944 -0.1485 158.4933 -0.149 159.7285 -0.1495 C179.1491 -0.1578 198.5696 -0.1831 217.9901 -0.2156 C237.9465 -0.2487 257.9029 -0.2667 277.8593 -0.2699 C289.057 -0.272 300.2546 -0.2807 311.4522 -0.3063 C320.9882 -0.3281 330.5241 -0.3361 340.0602 -0.3263 C344.9209 -0.3218 349.7814 -0.3236 354.6421 -0.3431 C359.1017 -0.3608 363.5608 -0.3597 368.0203 -0.3442 C369.6239 -0.3418 371.2276 -0.3461 372.8312 -0.358 C391.1342 -0.4858 407.2005 2.9228 420.8755 15.5222 C431.9826 27.1204 437.0166 41.2078 436.9487 57.1327 C436.9525 58.0983 436.9563 59.0639 436.9603 60.0588 C436.9705 63.2734 436.9666 66.4879 436.9626 69.7026 C436.967 72.0162 436.9722 74.3297 436.9781 76.6433 C436.9915 82.9141 436.9921 89.185 436.9896 95.4559 C436.9885 100.699 436.9934 105.9422 436.9982 111.1854 C437.0093 123.5617 437.0097 135.9381 437.0036 148.3144 C436.9976 161.0605 437.0099 173.8066 437.0312 186.5527 C437.0489 197.5135 437.0548 208.4743 437.0516 219.4352 C437.0498 225.9737 437.0524 232.5121 437.0663 239.0506 C437.0789 245.2042 437.0769 251.3576 437.0639 257.5112 C437.0615 259.7613 437.0642 262.0114 437.0725 264.2614 C437.1419 284.5761 435.7313 301.4687 421.0942 316.862 C410.7415 326.6937 397.9503 332.2609 383.6462 332.2814 C381.4811 332.2881 381.4811 332.2881 379.2722 332.2949 C377.6694 332.2948 376.0666 332.2946 374.4639 332.2943 C372.7619 332.2976 371.0599 332.3014 369.3579 332.3055 C364.6759 332.3155 359.994 332.3192 355.3121 332.3219 C350.2641 332.3258 345.2162 332.3354 340.1682 332.3441 C327.9744 332.3638 315.7805 332.3739 303.5866 332.3828 C297.8429 332.3872 292.0991 332.3926 286.3554 332.3978 C267.2589 332.4148 248.1625 332.4293 229.066 332.4366 C224.1106 332.4385 219.1553 332.4404 214.1999 332.4423 C212.3525 332.4431 212.3525 332.4431 210.4678 332.4438 C190.5218 332.4521 170.5759 332.4774 150.63 332.5099 C130.1472 332.543 109.6644 332.561 89.1815 332.5642 C77.6831 332.5664 66.1848 332.5751 54.6865 332.6007 C44.8927 332.6224 35.099 332.6304 25.3051 332.6207 C20.311 332.6162 15.3171 332.618 10.323 332.6375 C5.7438 332.6551 1.1649 332.6541 -3.4143 332.6386 C-5.0638 332.6362 -6.7133 332.6405 -8.3628 332.6524 C-25.3864 332.7677 -40.6598 329.3071 -53.562 317.5847 C-63.3533 307.078 -68.7924 294.0347 -68.6997 279.8132 C-68.7051 278.8102 -68.7105 277.8071 -68.716 276.7736 C-68.7303 273.4322 -68.7232 270.0912 -68.7161 266.7497 C-68.7218 264.3459 -68.7288 261.942 -68.7369 259.5382 C-68.7548 253.0215 -68.7536 246.5049 -68.7479 239.9882 C-68.7448 234.5411 -68.7509 229.0941 -68.757 223.647 C-68.771 210.7912 -68.7695 197.9355 -68.7581 185.0798 C-68.7466 171.8349 -68.7607 158.5901 -68.7875 145.3452 C-68.8097 133.9589 -68.8163 122.5727 -68.8104 111.1864 C-68.807 104.3925 -68.8094 97.5987 -68.8266 90.8048 C-68.8422 84.4123 -68.8381 78.0201 -68.8193 71.6277 C-68.8157 69.2885 -68.8187 66.9493 -68.8292 64.6101 C-68.9095 45.2183 -66.866 30.0096 -52.9995 15.3347 C-37.89 1.066 -19.7934 -0.0036 0 0 Z M-24.312 45.1472 C-27.0495 48.6027 -27.689 51.1589 -27.7108 55.5188 C-27.7233 56.586 -27.7358 57.6531 -27.7487 58.7525 C-27.7473 59.9151 -27.7459 61.0776 -27.7444 62.2753 C-27.7546 63.5095 -27.7648 64.7437 -27.7753 66.0152 C-27.8056 70.1283 -27.8147 74.2411 -27.8237 78.3542 C-27.8406 81.2653 -27.8588 84.1764 -27.8781 87.0875 C-27.9161 93.2388 -27.9451 99.3901 -27.9656 105.5415 C-27.9912 113.2174 -28.0307 120.8932 -28.0763 128.5691 C-28.2622 159.8449 -28.3392 191.1208 -28.3472 222.3972 C-28.3478 223.7197 -28.3483 225.0421 -28.3489 226.4047 C-31.3555 259.717 -31.3555 259.717 -23.312 289.1472 C-19.066 291.2702 -17.1489 291.3991 -12.4959 291.4044 C-10.3682 291.4141 -10.3682 291.4141 -8.1974 291.424 C-6.6176 291.421 -5.0378 291.4179 -3.4581 291.4146 C-1.7842 291.4183 -0.1104 291.4229 1.5635 291.4283 C6.1719 291.4406 10.7803 291.4403 15.3887 291.4379 C20.3554 291.4375 25.3221 291.4486 30.2888 291.4581 C40.0226 291.4747 49.7564 291.4802 59.4902 291.4813 C67.4001 291.4822 75.3099 291.4863 83.2197 291.4927 C105.6328 291.5103 128.0458 291.5195 150.4588 291.518 C151.6677 291.5179 152.8765 291.5179 154.1221 291.5178 C155.3324 291.5177 156.5428 291.5176 157.7898 291.5175 C177.4114 291.5167 197.033 291.5359 216.6546 291.5641 C236.7893 291.5928 256.924 291.6066 277.0587 291.6049 C288.368 291.6042 299.6771 291.6097 310.9863 291.6312 C320.6142 291.6494 330.242 291.6538 339.87 291.6402 C344.7841 291.6337 349.698 291.6336 354.6122 291.6509 C359.109 291.6666 363.6054 291.6638 368.1022 291.6463 C369.7307 291.6433 371.3593 291.647 372.9877 291.6581 C375.1985 291.6721 377.4094 291.6592 379.6202 291.6449 C381.4635 291.6456 381.4635 291.6456 383.3441 291.6463 C388.2221 290.9182 391.364 288.6965 394.5379 284.9823 C396.1751 280.9462 396.1117 277.0724 396.0891 272.7854 C396.0959 271.8387 396.1027 270.892 396.1097 269.9165 C396.1287 266.7422 396.1262 263.5682 396.1238 260.3938 C396.1327 258.1187 396.1429 255.8436 396.1543 253.5686 C396.1808 247.3867 396.1878 241.205 396.1897 235.0232 C396.1926 229.864 396.2036 224.7049 396.2143 219.5458 C396.2387 207.375 396.246 195.2042 396.2439 183.0334 C396.2421 170.4745 396.2737 157.9161 396.3211 145.3573 C396.3603 134.5775 396.3764 123.7979 396.3745 113.0181 C396.3737 106.5786 396.3823 100.1394 396.414 93.6999 C396.4431 87.6439 396.4433 81.5886 396.4215 75.5326 C396.4184 73.3102 396.4255 71.0877 396.4436 68.8654 C396.4667 65.8305 396.4528 62.7978 396.4297 59.7629 C396.4528 58.4446 396.4528 58.4446 396.4764 57.0996 C396.3993 52.5201 395.8323 49.7673 392.8916 46.1712 C388.2147 41.7565 385.164 40.8971 378.9215 40.8899 C377.5141 40.8835 376.1066 40.877 374.6565 40.8704 C373.0892 40.8733 371.5219 40.8764 369.9546 40.8797 C368.2939 40.876 366.6331 40.8714 364.9723 40.866 C360.4 40.8538 355.8278 40.854 351.2555 40.8564 C346.3276 40.8568 341.3998 40.8458 336.4719 40.8363 C326.814 40.8197 317.1561 40.8142 307.4981 40.8131 C299.6493 40.8121 291.8005 40.808 283.9517 40.8017 C261.7097 40.784 239.4678 40.7748 217.2259 40.7763 C216.0262 40.7764 214.8266 40.7765 213.5906 40.7766 C212.3894 40.7766 211.1883 40.7767 209.9508 40.7768 C190.4818 40.7776 171.0129 40.7585 151.5439 40.7303 C131.564 40.7016 111.5841 40.6877 91.6042 40.6895 C80.3827 40.6901 69.1613 40.6846 57.9398 40.6631 C48.3858 40.6449 38.832 40.6405 29.278 40.6541 C24.4022 40.6607 19.5266 40.6607 14.6509 40.6434 C10.1879 40.6278 5.7254 40.6305 1.2624 40.648 C-0.3526 40.6511 -1.9677 40.6474 -3.5828 40.6363 C-14.7609 40.2559 -14.7609 40.2559 -24.312 45.1472 Z " transform="translate(108.31202697753906,39.85282897949219)" fill="#2474d4"/>
  <path d="M0 0 C1.3247 0.003 1.3247 0.003 2.6762 0.0061 C3.6014 0.0044 4.5265 0.0026 5.4796 0.0008 C8.5537 -0.0036 11.6276 -0.0007 14.7016 0.0027 C16.8277 0.002 18.9538 0.0011 21.0799 -0.0002 C25.5422 -0.0017 30.0045 0.0005 34.4668 0.0052 C40.2006 0.0109 45.9343 0.0076 51.6682 0.0016 C56.0603 -0.002 60.4525 -0.0009 64.8446 0.0017 C66.9595 0.0024 69.0743 0.0016 71.1891 -0.0008 C74.1393 -0.0033 77.0893 0.0005 80.0395 0.0061 C80.9227 0.0041 81.8058 0.0021 82.7157 0 C88.7436 0.0213 88.7436 0.0213 89.8579 1.1355 C90.2987 3.6105 90.71 6.0908 91.1079 8.573 C93.3006 20.5008 97.6664 29.4648 107.4204 36.823 C112.816 39.9994 118.8692 41.4654 124.8579 43.1355 C124.8867 47.6147 124.9046 52.0938 124.9204 56.573 C124.9287 57.8524 124.9371 59.1318 124.9458 60.45 C124.949 61.6649 124.9522 62.8799 124.9555 64.1316 C124.9608 65.2575 124.966 66.3835 124.9714 67.5435 C124.8579 70.1355 124.8579 70.1355 123.8579 71.1355 C121.7189 71.2324 119.5767 71.2574 117.4356 71.2558 C116.0375 71.2572 114.6394 71.2585 113.1989 71.2599 C111.6346 71.2564 110.0703 71.2528 108.5061 71.2491 C106.8705 71.2488 105.2349 71.2489 103.5993 71.2495 C99.1449 71.2498 94.6906 71.2439 90.2362 71.2369 C85.5864 71.2307 80.9366 71.2301 76.2867 71.2289 C67.4752 71.2258 58.6638 71.2176 49.8523 71.2075 C39.8235 71.1964 29.7946 71.1909 19.7658 71.1859 C-0.8702 71.1754 -21.5062 71.1576 -42.1421 71.1355 C-42.1421 61.5655 -42.1421 51.9955 -42.1421 42.1355 C-38.5121 41.1455 -34.8821 40.1555 -31.1421 39.1355 C-22.197 35.0804 -15.1376 28.7452 -10.9468 19.659 C-9.3677 14.7068 -8.5985 9.5717 -7.7554 4.4519 C-6.7518 -0.9753 -5.161 0.0182 0 0 Z " transform="translate(251.1421356201172,389.8644714355469)" fill="#2474d4"/>
</svg>
